<?xml version="1.0" encoding="UTF-8"?>
<svg xmlns="http://www.w3.org/2000/svg" xmlns:xlink="http://www.w3.org/1999/xlink" width="250pt" height="250pt" viewBox="0 0 250 250" version="1.1">
<g id="surface952350">
<path style=" stroke:none;fill-rule:nonzero;fill:rgb(20.392157%,28.627451%,36.862745%);fill-opacity:1;" d="M 235.800781 106.105469 L 206.25 101.273438 C 204.519531 95.34375 202.15625 89.644531 199.195312 84.25 L 216.445312 59.664062 C 217.839844 57.679688 217.601562 54.976562 215.886719 53.253906 L 196.441406 33.820312 C 194.703125 32.089844 191.976562 31.863281 189.984375 33.300781 L 165.769531 50.703125 C 160.324219 47.695312 154.574219 45.304688 148.609375 43.570312 L 143.453125 14.140625 C 143.035156 11.75 140.960938 10 138.53125 10 L 111.03125 10 C 108.578125 10 106.488281 11.773438 106.09375 14.195312 L 101.316406 43.464844 C 95.316406 45.191406 89.554688 47.554688 84.128906 50.523438 L 59.980469 33.273438 C 57.984375 31.851562 55.269531 32.078125 53.535156 33.804688 L 34.101562 53.238281 C 32.386719 54.953125 32.144531 57.65625 33.539062 59.640625 L 50.535156 83.953125 C 47.511719 89.429688 45.101562 95.226562 43.34375 101.253906 L 14.191406 106.109375 C 11.78125 106.511719 10.011719 108.601562 10.011719 111.039062 L 10.011719 138.539062 C 10.011719 140.964844 11.75 143.039062 14.136719 143.464844 L 43.289062 148.636719 C 45.035156 154.648438 47.445312 160.445312 50.480469 165.933594 L 33.273438 190 C 31.855469 191.984375 32.078125 194.710938 33.804688 196.445312 L 53.246094 215.898438 C 54.960938 217.613281 57.664062 217.855469 59.648438 216.460938 L 84 199.40625 C 89.464844 202.410156 95.238281 204.796875 101.226562 206.523438 L 106.105469 235.828125 C 106.5 238.234375 108.585938 240 111.03125 240 L 138.53125 240 C 140.953125 240 143.03125 238.261719 143.449219 235.875 L 148.675781 206.425781 C 154.671875 204.660156 160.414062 202.261719 165.824219 199.25 L 190.351562 216.453125 C 192.339844 217.859375 195.039062 217.613281 196.761719 215.898438 L 216.199219 196.445312 C 217.929688 194.710938 218.15625 191.976562 216.71875 189.984375 L 199.230469 165.699219 C 202.195312 160.300781 204.550781 154.589844 206.265625 148.660156 L 235.855469 143.464844 C 238.25 143.046875 239.988281 140.964844 239.988281 138.539062 L 239.988281 111.039062 C 239.996094 108.589844 238.21875 106.5 235.800781 106.105469 Z M 125 160 C 105.671875 160 90 144.328125 90 125 C 90 105.671875 105.671875 90 125 90 C 144.328125 90 160 105.671875 160 125 C 160 144.328125 144.328125 160 125 160 Z M 125 160 "/>
</g>
</svg>
